<mxfile host="app.diagrams.net" agent="Mozilla/5.0 (Windows NT 10.0; Win64; x64) AppleWebKit/537.36 (KHTML, like Gecko) Chrome/128.0.0.0 Safari/537.36" version="24.7.12">
  <diagram name="Page-1" id="rzftWoDQy20CQ_kzZCMM">
    <mxGraphModel dx="1644" dy="1546" grid="1" gridSize="10" guides="1" tooltips="1" connect="1" arrows="1" fold="1" page="1" pageScale="1" pageWidth="850" pageHeight="1100" math="0" shadow="0">
      <root>
        <mxCell id="0" />
        <mxCell id="1" parent="0" />
        <mxCell id="igJIDuotBdU4F206MJnK-3" value="AWS Cloud" style="points=[[0,0],[0.25,0],[0.5,0],[0.75,0],[1,0],[1,0.25],[1,0.5],[1,0.75],[1,1],[0.75,1],[0.5,1],[0.25,1],[0,1],[0,0.75],[0,0.5],[0,0.25]];outlineConnect=0;gradientColor=none;html=1;whiteSpace=wrap;fontSize=12;fontStyle=0;container=1;pointerEvents=0;collapsible=0;recursiveResize=0;shape=mxgraph.aws4.group;grIcon=mxgraph.aws4.group_aws_cloud;strokeColor=#232F3E;fillColor=none;verticalAlign=top;align=left;spacingLeft=30;fontColor=#232F3E;dashed=0;" vertex="1" parent="1">
          <mxGeometry x="-160" y="-390" width="990" height="680" as="geometry" />
        </mxCell>
        <mxCell id="igJIDuotBdU4F206MJnK-71" value="Region" style="sketch=0;outlineConnect=0;gradientColor=none;html=1;whiteSpace=wrap;fontSize=12;fontStyle=0;shape=mxgraph.aws4.group;grIcon=mxgraph.aws4.group_region;strokeColor=#879196;fillColor=none;verticalAlign=top;align=left;spacingLeft=30;fontColor=#879196;dashed=1;" vertex="1" parent="igJIDuotBdU4F206MJnK-3">
          <mxGeometry x="10" y="30" width="960" height="610" as="geometry" />
        </mxCell>
        <mxCell id="igJIDuotBdU4F206MJnK-4" value="VPC" style="points=[[0,0],[0.25,0],[0.5,0],[0.75,0],[1,0],[1,0.25],[1,0.5],[1,0.75],[1,1],[0.75,1],[0.5,1],[0.25,1],[0,1],[0,0.75],[0,0.5],[0,0.25]];outlineConnect=0;html=1;whiteSpace=wrap;fontSize=12;fontStyle=0;container=1;pointerEvents=0;collapsible=0;recursiveResize=0;shape=mxgraph.aws4.group;grIcon=mxgraph.aws4.group_vpc2;verticalAlign=top;align=left;spacingLeft=30;dashed=0;" vertex="1" parent="igJIDuotBdU4F206MJnK-3">
          <mxGeometry x="20" y="60" width="780" height="490" as="geometry" />
        </mxCell>
        <mxCell id="igJIDuotBdU4F206MJnK-5" value="Availability zone 1" style="sketch=0;outlineConnect=0;gradientColor=none;html=1;whiteSpace=wrap;fontSize=12;fontStyle=0;shape=mxgraph.aws4.group;grIcon=mxgraph.aws4.group_availability_zone;strokeColor=#545B64;fillColor=none;verticalAlign=top;align=left;spacingLeft=30;fontColor=#545B64;dashed=1;" vertex="1" parent="igJIDuotBdU4F206MJnK-4">
          <mxGeometry x="90" y="30" width="280" height="450" as="geometry" />
        </mxCell>
        <mxCell id="igJIDuotBdU4F206MJnK-10" value="Public subnet -1" style="points=[[0,0],[0.25,0],[0.5,0],[0.75,0],[1,0],[1,0.25],[1,0.5],[1,0.75],[1,1],[0.75,1],[0.5,1],[0.25,1],[0,1],[0,0.75],[0,0.5],[0,0.25]];outlineConnect=0;gradientColor=none;html=1;whiteSpace=wrap;fontSize=12;fontStyle=0;container=1;pointerEvents=0;collapsible=0;recursiveResize=0;shape=mxgraph.aws4.group;grIcon=mxgraph.aws4.group_security_group;grStroke=0;strokeColor=#7AA116;fillColor=#F2F6E8;verticalAlign=top;align=left;spacingLeft=30;fontColor=#248814;dashed=0;" vertex="1" parent="igJIDuotBdU4F206MJnK-4">
          <mxGeometry x="110" y="80" width="230" height="160" as="geometry" />
        </mxCell>
        <mxCell id="igJIDuotBdU4F206MJnK-12" value="10.0.1.0/24" style="text;html=1;align=center;verticalAlign=middle;whiteSpace=wrap;rounded=0;" vertex="1" parent="igJIDuotBdU4F206MJnK-10">
          <mxGeometry x="40" y="30" width="40" height="10" as="geometry" />
        </mxCell>
        <mxCell id="igJIDuotBdU4F206MJnK-34" value="NAT GW" style="outlineConnect=0;dashed=0;verticalLabelPosition=bottom;verticalAlign=top;align=center;html=1;shape=mxgraph.aws3.vpc_nat_gateway;fillColor=#F58534;gradientColor=none;" vertex="1" parent="igJIDuotBdU4F206MJnK-10">
          <mxGeometry x="20" y="100" width="30" height="32" as="geometry" />
        </mxCell>
        <mxCell id="igJIDuotBdU4F206MJnK-16" value="Private subnet -1" style="points=[[0,0],[0.25,0],[0.5,0],[0.75,0],[1,0],[1,0.25],[1,0.5],[1,0.75],[1,1],[0.75,1],[0.5,1],[0.25,1],[0,1],[0,0.75],[0,0.5],[0,0.25]];outlineConnect=0;gradientColor=none;html=1;whiteSpace=wrap;fontSize=12;fontStyle=0;container=1;pointerEvents=0;collapsible=0;recursiveResize=0;shape=mxgraph.aws4.group;grIcon=mxgraph.aws4.group_security_group;grStroke=0;strokeColor=#00A4A6;fillColor=#E6F6F7;verticalAlign=top;align=left;spacingLeft=30;fontColor=#147EBA;dashed=0;" vertex="1" parent="igJIDuotBdU4F206MJnK-4">
          <mxGeometry x="110" y="270" width="230" height="200" as="geometry" />
        </mxCell>
        <mxCell id="igJIDuotBdU4F206MJnK-18" value="10.0.3.0/24" style="text;html=1;align=center;verticalAlign=middle;whiteSpace=wrap;rounded=0;" vertex="1" parent="igJIDuotBdU4F206MJnK-16">
          <mxGeometry x="40" y="30" width="40" height="10" as="geometry" />
        </mxCell>
        <mxCell id="igJIDuotBdU4F206MJnK-60" value="" style="sketch=0;outlineConnect=0;fontColor=#232F3E;gradientColor=none;strokeColor=#ffffff;fillColor=#232F3E;dashed=0;verticalLabelPosition=middle;verticalAlign=bottom;align=center;html=1;whiteSpace=wrap;fontSize=10;fontStyle=1;spacing=3;shape=mxgraph.aws4.productIcon;prIcon=mxgraph.aws4.rds;" vertex="1" parent="igJIDuotBdU4F206MJnK-16">
          <mxGeometry x="20" y="125" width="30" height="30" as="geometry" />
        </mxCell>
        <mxCell id="igJIDuotBdU4F206MJnK-61" value="Primary RDS" style="text;html=1;align=center;verticalAlign=middle;whiteSpace=wrap;rounded=0;" vertex="1" parent="igJIDuotBdU4F206MJnK-16">
          <mxGeometry x="5" y="170" width="60" height="20" as="geometry" />
        </mxCell>
        <mxCell id="igJIDuotBdU4F206MJnK-20" value="Availability zone 2" style="sketch=0;outlineConnect=0;gradientColor=none;html=1;whiteSpace=wrap;fontSize=12;fontStyle=0;shape=mxgraph.aws4.group;grIcon=mxgraph.aws4.group_availability_zone;strokeColor=#545B64;fillColor=none;verticalAlign=top;align=left;spacingLeft=30;fontColor=#545B64;dashed=1;" vertex="1" parent="igJIDuotBdU4F206MJnK-4">
          <mxGeometry x="450" y="30" width="280" height="450" as="geometry" />
        </mxCell>
        <mxCell id="igJIDuotBdU4F206MJnK-21" value="Public subnet -2" style="points=[[0,0],[0.25,0],[0.5,0],[0.75,0],[1,0],[1,0.25],[1,0.5],[1,0.75],[1,1],[0.75,1],[0.5,1],[0.25,1],[0,1],[0,0.75],[0,0.5],[0,0.25]];outlineConnect=0;gradientColor=none;html=1;whiteSpace=wrap;fontSize=12;fontStyle=0;container=1;pointerEvents=0;collapsible=0;recursiveResize=0;shape=mxgraph.aws4.group;grIcon=mxgraph.aws4.group_security_group;grStroke=0;strokeColor=#7AA116;fillColor=#F2F6E8;verticalAlign=top;align=left;spacingLeft=30;fontColor=#248814;dashed=0;" vertex="1" parent="igJIDuotBdU4F206MJnK-4">
          <mxGeometry x="470" y="80" width="230" height="160" as="geometry" />
        </mxCell>
        <mxCell id="igJIDuotBdU4F206MJnK-22" value="10.0.2.0/24" style="text;html=1;align=center;verticalAlign=middle;whiteSpace=wrap;rounded=0;" vertex="1" parent="igJIDuotBdU4F206MJnK-21">
          <mxGeometry x="40" y="30" width="40" height="10" as="geometry" />
        </mxCell>
        <mxCell id="igJIDuotBdU4F206MJnK-24" value="Private subnet -2" style="points=[[0,0],[0.25,0],[0.5,0],[0.75,0],[1,0],[1,0.25],[1,0.5],[1,0.75],[1,1],[0.75,1],[0.5,1],[0.25,1],[0,1],[0,0.75],[0,0.5],[0,0.25]];outlineConnect=0;gradientColor=none;html=1;whiteSpace=wrap;fontSize=12;fontStyle=0;container=1;pointerEvents=0;collapsible=0;recursiveResize=0;shape=mxgraph.aws4.group;grIcon=mxgraph.aws4.group_security_group;grStroke=0;strokeColor=#00A4A6;fillColor=#E6F6F7;verticalAlign=top;align=left;spacingLeft=30;fontColor=#147EBA;dashed=0;" vertex="1" parent="igJIDuotBdU4F206MJnK-4">
          <mxGeometry x="470" y="270" width="230" height="200" as="geometry" />
        </mxCell>
        <mxCell id="igJIDuotBdU4F206MJnK-25" value="10.0.4.0/24" style="text;html=1;align=center;verticalAlign=middle;whiteSpace=wrap;rounded=0;" vertex="1" parent="igJIDuotBdU4F206MJnK-24">
          <mxGeometry x="40" y="30" width="40" height="10" as="geometry" />
        </mxCell>
        <mxCell id="igJIDuotBdU4F206MJnK-62" value="RDS Multi-AZ&lt;div&gt;Standby&lt;/div&gt;" style="text;html=1;align=center;verticalAlign=middle;whiteSpace=wrap;rounded=0;" vertex="1" parent="igJIDuotBdU4F206MJnK-24">
          <mxGeometry x="130" y="160" width="80" height="20" as="geometry" />
        </mxCell>
        <mxCell id="igJIDuotBdU4F206MJnK-27" value="Auto Scaling&amp;nbsp;" style="points=[[0,0],[0.25,0],[0.5,0],[0.75,0],[1,0],[1,0.25],[1,0.5],[1,0.75],[1,1],[0.75,1],[0.5,1],[0.25,1],[0,1],[0,0.75],[0,0.5],[0,0.25]];outlineConnect=0;gradientColor=none;html=1;whiteSpace=wrap;fontSize=12;fontStyle=0;container=1;pointerEvents=0;collapsible=0;recursiveResize=0;shape=mxgraph.aws4.groupCenter;grIcon=mxgraph.aws4.group_auto_scaling_group;grStroke=1;strokeColor=#D86613;fillColor=none;verticalAlign=top;align=center;fontColor=#D86613;dashed=1;spacingTop=25;" vertex="1" parent="igJIDuotBdU4F206MJnK-4">
          <mxGeometry x="200" y="130" width="430" height="70" as="geometry" />
        </mxCell>
        <mxCell id="igJIDuotBdU4F206MJnK-23" value="EC 2" style="sketch=0;points=[[0,0,0],[0.25,0,0],[0.5,0,0],[0.75,0,0],[1,0,0],[0,1,0],[0.25,1,0],[0.5,1,0],[0.75,1,0],[1,1,0],[0,0.25,0],[0,0.5,0],[0,0.75,0],[1,0.25,0],[1,0.5,0],[1,0.75,0]];outlineConnect=0;fontColor=#232F3E;fillColor=#ED7100;strokeColor=#ffffff;dashed=0;verticalLabelPosition=bottom;verticalAlign=top;align=center;html=1;fontSize=12;fontStyle=0;aspect=fixed;shape=mxgraph.aws4.resourceIcon;resIcon=mxgraph.aws4.ec2;" vertex="1" parent="igJIDuotBdU4F206MJnK-27">
          <mxGeometry x="370" y="15" width="30" height="30" as="geometry" />
        </mxCell>
        <mxCell id="igJIDuotBdU4F206MJnK-14" value="EC 2" style="sketch=0;points=[[0,0,0],[0.25,0,0],[0.5,0,0],[0.75,0,0],[1,0,0],[0,1,0],[0.25,1,0],[0.5,1,0],[0.75,1,0],[1,1,0],[0,0.25,0],[0,0.5,0],[0,0.75,0],[1,0.25,0],[1,0.5,0],[1,0.75,0]];outlineConnect=0;fontColor=#232F3E;fillColor=#ED7100;strokeColor=#ffffff;dashed=0;verticalLabelPosition=bottom;verticalAlign=top;align=center;html=1;fontSize=12;fontStyle=0;aspect=fixed;shape=mxgraph.aws4.resourceIcon;resIcon=mxgraph.aws4.ec2;" vertex="1" parent="igJIDuotBdU4F206MJnK-27">
          <mxGeometry x="50" y="15" width="30" height="30" as="geometry" />
        </mxCell>
        <mxCell id="igJIDuotBdU4F206MJnK-32" value="" style="sketch=0;outlineConnect=0;fontColor=#232F3E;gradientColor=none;fillColor=#8C4FFF;strokeColor=none;dashed=0;verticalLabelPosition=bottom;verticalAlign=top;align=center;html=1;fontSize=12;fontStyle=0;aspect=fixed;pointerEvents=1;shape=mxgraph.aws4.application_load_balancer;" vertex="1" parent="igJIDuotBdU4F206MJnK-4">
          <mxGeometry x="395" y="260" width="40" height="40" as="geometry" />
        </mxCell>
        <mxCell id="igJIDuotBdU4F206MJnK-33" value="NAT GW" style="outlineConnect=0;dashed=0;verticalLabelPosition=bottom;verticalAlign=top;align=center;html=1;shape=mxgraph.aws3.vpc_nat_gateway;fillColor=#F58534;gradientColor=none;" vertex="1" parent="igJIDuotBdU4F206MJnK-4">
          <mxGeometry x="650" y="180" width="30" height="32" as="geometry" />
        </mxCell>
        <mxCell id="igJIDuotBdU4F206MJnK-39" style="edgeStyle=orthogonalEdgeStyle;rounded=0;orthogonalLoop=1;jettySize=auto;html=1;strokeColor=#CCCCCC;" edge="1" parent="igJIDuotBdU4F206MJnK-4" source="igJIDuotBdU4F206MJnK-14" target="igJIDuotBdU4F206MJnK-32">
          <mxGeometry relative="1" as="geometry">
            <Array as="points">
              <mxPoint x="265" y="220" />
              <mxPoint x="410" y="220" />
            </Array>
          </mxGeometry>
        </mxCell>
        <mxCell id="igJIDuotBdU4F206MJnK-40" style="edgeStyle=orthogonalEdgeStyle;rounded=0;orthogonalLoop=1;jettySize=auto;html=1;strokeColor=#CCCCCC;" edge="1" parent="igJIDuotBdU4F206MJnK-4" source="igJIDuotBdU4F206MJnK-23" target="igJIDuotBdU4F206MJnK-32">
          <mxGeometry relative="1" as="geometry">
            <Array as="points">
              <mxPoint x="585" y="220" />
              <mxPoint x="410" y="220" />
            </Array>
          </mxGeometry>
        </mxCell>
        <mxCell id="igJIDuotBdU4F206MJnK-47" value="Auto Scaling&amp;nbsp;" style="points=[[0,0],[0.25,0],[0.5,0],[0.75,0],[1,0],[1,0.25],[1,0.5],[1,0.75],[1,1],[0.75,1],[0.5,1],[0.25,1],[0,1],[0,0.75],[0,0.5],[0,0.25]];outlineConnect=0;gradientColor=none;html=1;whiteSpace=wrap;fontSize=12;fontStyle=0;container=1;pointerEvents=0;collapsible=0;recursiveResize=0;shape=mxgraph.aws4.groupCenter;grIcon=mxgraph.aws4.group_auto_scaling_group;grStroke=1;strokeColor=#D86613;fillColor=none;verticalAlign=top;align=center;fontColor=#D86613;dashed=1;spacingTop=25;" vertex="1" parent="igJIDuotBdU4F206MJnK-4">
          <mxGeometry x="200" y="320" width="430" height="70" as="geometry" />
        </mxCell>
        <mxCell id="igJIDuotBdU4F206MJnK-48" value="EC 2" style="sketch=0;points=[[0,0,0],[0.25,0,0],[0.5,0,0],[0.75,0,0],[1,0,0],[0,1,0],[0.25,1,0],[0.5,1,0],[0.75,1,0],[1,1,0],[0,0.25,0],[0,0.5,0],[0,0.75,0],[1,0.25,0],[1,0.5,0],[1,0.75,0]];outlineConnect=0;fontColor=#232F3E;fillColor=#ED7100;strokeColor=#ffffff;dashed=0;verticalLabelPosition=bottom;verticalAlign=top;align=center;html=1;fontSize=12;fontStyle=0;aspect=fixed;shape=mxgraph.aws4.resourceIcon;resIcon=mxgraph.aws4.ec2;" vertex="1" parent="igJIDuotBdU4F206MJnK-47">
          <mxGeometry x="370" y="15" width="30" height="30" as="geometry" />
        </mxCell>
        <mxCell id="igJIDuotBdU4F206MJnK-49" value="EC 2" style="sketch=0;points=[[0,0,0],[0.25,0,0],[0.5,0,0],[0.75,0,0],[1,0,0],[0,1,0],[0.25,1,0],[0.5,1,0],[0.75,1,0],[1,1,0],[0,0.25,0],[0,0.5,0],[0,0.75,0],[1,0.25,0],[1,0.5,0],[1,0.75,0]];outlineConnect=0;fontColor=#232F3E;fillColor=#ED7100;strokeColor=#ffffff;dashed=0;verticalLabelPosition=bottom;verticalAlign=top;align=center;html=1;fontSize=12;fontStyle=0;aspect=fixed;shape=mxgraph.aws4.resourceIcon;resIcon=mxgraph.aws4.ec2;" vertex="1" parent="igJIDuotBdU4F206MJnK-47">
          <mxGeometry x="50" y="15" width="30" height="30" as="geometry" />
        </mxCell>
        <mxCell id="igJIDuotBdU4F206MJnK-50" style="edgeStyle=orthogonalEdgeStyle;rounded=0;orthogonalLoop=1;jettySize=auto;html=1;entryX=0.5;entryY=0;entryDx=0;entryDy=0;entryPerimeter=0;strokeColor=#CCCCCC;" edge="1" parent="igJIDuotBdU4F206MJnK-4" source="igJIDuotBdU4F206MJnK-32" target="igJIDuotBdU4F206MJnK-49">
          <mxGeometry relative="1" as="geometry" />
        </mxCell>
        <mxCell id="igJIDuotBdU4F206MJnK-51" style="edgeStyle=orthogonalEdgeStyle;rounded=0;orthogonalLoop=1;jettySize=auto;html=1;entryX=0.5;entryY=0;entryDx=0;entryDy=0;entryPerimeter=0;strokeColor=#CCCCCC;" edge="1" parent="igJIDuotBdU4F206MJnK-4" source="igJIDuotBdU4F206MJnK-32" target="igJIDuotBdU4F206MJnK-48">
          <mxGeometry relative="1" as="geometry" />
        </mxCell>
        <mxCell id="igJIDuotBdU4F206MJnK-53" style="edgeStyle=orthogonalEdgeStyle;rounded=0;orthogonalLoop=1;jettySize=auto;html=1;fillColor=#f5f5f5;strokeColor=#CCCCCC;" edge="1" parent="igJIDuotBdU4F206MJnK-4" source="igJIDuotBdU4F206MJnK-48" target="igJIDuotBdU4F206MJnK-33">
          <mxGeometry relative="1" as="geometry" />
        </mxCell>
        <mxCell id="igJIDuotBdU4F206MJnK-54" style="edgeStyle=orthogonalEdgeStyle;rounded=0;orthogonalLoop=1;jettySize=auto;html=1;fillColor=#f5f5f5;strokeColor=#CCCCCC;" edge="1" parent="igJIDuotBdU4F206MJnK-4" source="igJIDuotBdU4F206MJnK-49" target="igJIDuotBdU4F206MJnK-34">
          <mxGeometry relative="1" as="geometry" />
        </mxCell>
        <mxCell id="igJIDuotBdU4F206MJnK-58" value="" style="sketch=0;outlineConnect=0;fontColor=#232F3E;gradientColor=none;strokeColor=#ffffff;fillColor=#232F3E;dashed=0;verticalLabelPosition=middle;verticalAlign=bottom;align=center;html=1;whiteSpace=wrap;fontSize=10;fontStyle=1;spacing=3;shape=mxgraph.aws4.productIcon;prIcon=mxgraph.aws4.rds;" vertex="1" parent="igJIDuotBdU4F206MJnK-4">
          <mxGeometry x="650" y="395" width="30" height="30" as="geometry" />
        </mxCell>
        <mxCell id="igJIDuotBdU4F206MJnK-63" style="edgeStyle=orthogonalEdgeStyle;rounded=0;orthogonalLoop=1;jettySize=auto;html=1;dashed=1;dashPattern=8 8;strokeColor=#CCCCCC;" edge="1" parent="igJIDuotBdU4F206MJnK-4" source="igJIDuotBdU4F206MJnK-60" target="igJIDuotBdU4F206MJnK-58">
          <mxGeometry relative="1" as="geometry">
            <Array as="points">
              <mxPoint x="410" y="420" />
              <mxPoint x="410" y="420" />
            </Array>
          </mxGeometry>
        </mxCell>
        <mxCell id="igJIDuotBdU4F206MJnK-64" value="Sync Replication" style="edgeLabel;html=1;align=center;verticalAlign=middle;resizable=0;points=[];" vertex="1" connectable="0" parent="igJIDuotBdU4F206MJnK-63">
          <mxGeometry x="-0.0204" y="-3" relative="1" as="geometry">
            <mxPoint as="offset" />
          </mxGeometry>
        </mxCell>
        <mxCell id="igJIDuotBdU4F206MJnK-65" style="edgeStyle=orthogonalEdgeStyle;rounded=0;orthogonalLoop=1;jettySize=auto;html=1;strokeColor=#CCCCCC;" edge="1" parent="igJIDuotBdU4F206MJnK-4" source="igJIDuotBdU4F206MJnK-48" target="igJIDuotBdU4F206MJnK-60">
          <mxGeometry relative="1" as="geometry">
            <Array as="points">
              <mxPoint x="585" y="400" />
            </Array>
          </mxGeometry>
        </mxCell>
        <mxCell id="igJIDuotBdU4F206MJnK-67" style="edgeStyle=orthogonalEdgeStyle;rounded=0;orthogonalLoop=1;jettySize=auto;html=1;strokeColor=#CCCCCC;" edge="1" parent="igJIDuotBdU4F206MJnK-4" source="igJIDuotBdU4F206MJnK-49" target="igJIDuotBdU4F206MJnK-60">
          <mxGeometry relative="1" as="geometry">
            <Array as="points">
              <mxPoint x="265" y="400" />
            </Array>
          </mxGeometry>
        </mxCell>
        <mxCell id="igJIDuotBdU4F206MJnK-37" style="edgeStyle=orthogonalEdgeStyle;rounded=0;orthogonalLoop=1;jettySize=auto;html=1;strokeColor=#a19b9b;" edge="1" parent="igJIDuotBdU4F206MJnK-3" source="igJIDuotBdU4F206MJnK-31" target="igJIDuotBdU4F206MJnK-14">
          <mxGeometry relative="1" as="geometry">
            <Array as="points">
              <mxPoint x="435" y="130" />
              <mxPoint x="285" y="130" />
            </Array>
          </mxGeometry>
        </mxCell>
        <mxCell id="igJIDuotBdU4F206MJnK-31" value="" style="sketch=0;outlineConnect=0;fontColor=#232F3E;gradientColor=none;fillColor=#8C4FFF;strokeColor=none;dashed=0;verticalLabelPosition=bottom;verticalAlign=top;align=center;html=1;fontSize=12;fontStyle=0;aspect=fixed;pointerEvents=1;shape=mxgraph.aws4.application_load_balancer;" vertex="1" parent="igJIDuotBdU4F206MJnK-3">
          <mxGeometry x="420" y="70" width="30" height="30" as="geometry" />
        </mxCell>
        <mxCell id="igJIDuotBdU4F206MJnK-38" style="edgeStyle=orthogonalEdgeStyle;rounded=0;orthogonalLoop=1;jettySize=auto;html=1;entryX=0.5;entryY=0;entryDx=0;entryDy=0;entryPerimeter=0;strokeColor=#a19b9b;" edge="1" parent="igJIDuotBdU4F206MJnK-3" source="igJIDuotBdU4F206MJnK-31" target="igJIDuotBdU4F206MJnK-23">
          <mxGeometry relative="1" as="geometry">
            <Array as="points">
              <mxPoint x="435" y="130" />
              <mxPoint x="605" y="130" />
            </Array>
          </mxGeometry>
        </mxCell>
        <mxCell id="igJIDuotBdU4F206MJnK-69" value="" style="sketch=0;points=[[0,0,0],[0.25,0,0],[0.5,0,0],[0.75,0,0],[1,0,0],[0,1,0],[0.25,1,0],[0.5,1,0],[0.75,1,0],[1,1,0],[0,0.25,0],[0,0.5,0],[0,0.75,0],[1,0.25,0],[1,0.5,0],[1,0.75,0]];outlineConnect=0;fontColor=#232F3E;fillColor=#DD344C;strokeColor=#ffffff;dashed=0;verticalLabelPosition=bottom;verticalAlign=top;align=center;html=1;fontSize=12;fontStyle=0;aspect=fixed;shape=mxgraph.aws4.resourceIcon;resIcon=mxgraph.aws4.secrets_manager;" vertex="1" parent="igJIDuotBdU4F206MJnK-3">
          <mxGeometry x="840" y="490" width="40" height="40" as="geometry" />
        </mxCell>
        <mxCell id="igJIDuotBdU4F206MJnK-70" value="Web App ECR Image&lt;div&gt;(Presentation)&lt;/div&gt;" style="outlineConnect=0;dashed=0;verticalLabelPosition=bottom;verticalAlign=top;align=center;html=1;shape=mxgraph.aws3.ecr_registry;fillColor=#F58534;gradientColor=none;" vertex="1" parent="igJIDuotBdU4F206MJnK-3">
          <mxGeometry x="840" y="190" width="40" height="40" as="geometry" />
        </mxCell>
        <mxCell id="igJIDuotBdU4F206MJnK-72" value="API ECR Image&lt;div&gt;(Presentation)&lt;/div&gt;" style="outlineConnect=0;dashed=0;verticalLabelPosition=bottom;verticalAlign=top;align=center;html=1;shape=mxgraph.aws3.ecr_registry;fillColor=#F58534;gradientColor=none;" vertex="1" parent="igJIDuotBdU4F206MJnK-3">
          <mxGeometry x="840" y="390" width="38" height="40" as="geometry" />
        </mxCell>
        <mxCell id="igJIDuotBdU4F206MJnK-73" style="edgeStyle=orthogonalEdgeStyle;rounded=0;orthogonalLoop=1;jettySize=auto;html=1;entryX=1;entryY=0.5;entryDx=0;entryDy=0;entryPerimeter=0;" edge="1" parent="igJIDuotBdU4F206MJnK-3" source="igJIDuotBdU4F206MJnK-70" target="igJIDuotBdU4F206MJnK-23">
          <mxGeometry relative="1" as="geometry" />
        </mxCell>
        <mxCell id="igJIDuotBdU4F206MJnK-74" style="edgeStyle=orthogonalEdgeStyle;rounded=0;orthogonalLoop=1;jettySize=auto;html=1;entryX=1;entryY=0.75;entryDx=0;entryDy=0;entryPerimeter=0;" edge="1" parent="igJIDuotBdU4F206MJnK-3" source="igJIDuotBdU4F206MJnK-72" target="igJIDuotBdU4F206MJnK-48">
          <mxGeometry relative="1" as="geometry" />
        </mxCell>
        <mxCell id="igJIDuotBdU4F206MJnK-78" style="edgeStyle=orthogonalEdgeStyle;rounded=0;orthogonalLoop=1;jettySize=auto;html=1;entryX=0;entryY=0.75;entryDx=0;entryDy=0;entryPerimeter=0;" edge="1" parent="igJIDuotBdU4F206MJnK-3" source="igJIDuotBdU4F206MJnK-58" target="igJIDuotBdU4F206MJnK-69">
          <mxGeometry relative="1" as="geometry" />
        </mxCell>
        <mxCell id="igJIDuotBdU4F206MJnK-81" style="edgeStyle=orthogonalEdgeStyle;rounded=0;orthogonalLoop=1;jettySize=auto;html=1;fillColor=#6d8764;strokeColor=#3A5431;" edge="1" parent="1" source="igJIDuotBdU4F206MJnK-79" target="igJIDuotBdU4F206MJnK-31">
          <mxGeometry relative="1" as="geometry" />
        </mxCell>
        <mxCell id="igJIDuotBdU4F206MJnK-79" value="Access App through Browser" style="verticalLabelPosition=bottom;shadow=0;dashed=0;align=center;html=1;verticalAlign=top;strokeWidth=1;shape=mxgraph.mockup.containers.userMale;strokeColor=#666666;strokeColor2=#008cff;" vertex="1" parent="1">
          <mxGeometry x="230" y="-510" width="90" height="70" as="geometry" />
        </mxCell>
      </root>
    </mxGraphModel>
  </diagram>
</mxfile>
